<svg id="svg-instagram" xmlns="http://www.w3.org/2000/svg" viewBox="0 0 242.7 242.7">
<path d="M168.5,111h15.2v65.5c0,4-3.2,7.2-7.2,7.2H66.2c-4,0-7.2-3.2-7.2-7.2V111h15.2c-0.7,3.3-1.1,6.8-1.1,10.3c0,26.7,21.6,48.3,48.3,48.3s48.3-21.6,48.3-48.3C169.6,117.8,169.2,114.3,168.5,111z M121.3,153.9c18,0,32.5-14.6,32.5-32.5s-14.6-32.5-32.5-32.5s-32.5,14.6-32.5,32.5C88.8,139.3,103.4,153.9,121.3,153.9z M160.3,87.9h12.4c3.6,0,6.6-2.9,6.6-6.6V69c0-3.6-2.9-6.6-6.6-6.6h-12.4c-3.6,0-6.6,2.9-6.6,6.6v12.4C153.7,85,156.7,87.9,160.3,87.9z M242.7,0v242.7H0V0H242.7z M198.6,63.5c0-10.8-8.7-19.5-19.5-19.5H63.5C52.8,44,44,52.8,44,63.5v115.6c0,10.8,8.7,19.5,19.5,19.5h115.6c10.8,0,19.5-8.7,19.5-19.5V63.5z" fill="#FFF" />
</svg>
