<svg id="svg-twitter" xmlns="http://www.w3.org/2000/svg" viewBox="0 0 612 612">
	<path d="M612,0V612H0V0Z" fill="#FFF" />
	<path d="M562,146.88a209.73,209.73,0,0,1-60.31,16.54,105.5,105.5,0,0,0,46.17-58.07,211.89,211.89,0,0,1-66.74,25.5,105.12,105.12,0,0,0-179,95.76A298.22,298.22,0,0,1,85.67,116.87a105.16,105.16,0,0,0,32.51,140.19A105,105,0,0,1,70.6,243.88v1.31a105.14,105.14,0,0,0,84.24,103,106.19,106.19,0,0,1-27.67,3.68,100.8,100.8,0,0,1-19.77-1.95,105.1,105.1,0,0,0,98.09,72.95A210.75,210.75,0,0,1,75.05,467.74a222.62,222.62,0,0,1-25-1.44,296.83,296.83,0,0,0,161,47.26c193.22,0,298.83-160,298.83-298.82l-.35-13.6A209.94,209.94,0,0,0,562,146.88Z" />
</svg>